<mxfile host="app.diagrams.net" modified="2021-10-27T03:22:36.928Z" agent="5.0 (Windows NT 10.0; Win64; x64) AppleWebKit/537.36 (KHTML, like Gecko) Chrome/95.0.4638.54 Safari/537.36" etag="yxfoHI0jAgXN5vrTs0hk" version="15.5.8" type="github">
  <diagram name="Page-1" id="54c02804-9d69-ba3f-8aca-1021b27b8050">
    <mxGraphModel dx="2469" dy="1758" grid="1" gridSize="10" guides="1" tooltips="1" connect="1" arrows="1" fold="1" page="1" pageScale="1" pageWidth="1169" pageHeight="827" background="#666666" math="0" shadow="0">
      <root>
        <mxCell id="0" />
        <mxCell id="1" parent="0" />
        <mxCell id="PU6QvB0Lzl-o8I71-tE7-29" value="Business&lt;br&gt;Understanding" style="shape=step;perimeter=stepPerimeter;whiteSpace=wrap;html=1;fixedSize=1;size=10;fillColor=#10739E;strokeColor=none;fontSize=17;fontColor=#FFFFFF;fontStyle=1;align=center;rounded=0;" parent="1" vertex="1">
          <mxGeometry x="-1040" y="90" width="160" height="70" as="geometry" />
        </mxCell>
        <mxCell id="PU6QvB0Lzl-o8I71-tE7-30" value="Model&lt;br&gt;Selection" style="shape=step;perimeter=stepPerimeter;whiteSpace=wrap;html=1;fixedSize=1;size=10;fillColor=#F2931E;strokeColor=none;fontSize=17;fontColor=#FFFFFF;fontStyle=1;align=center;rounded=0;" parent="1" vertex="1">
          <mxGeometry x="-400" y="90" width="160" height="70" as="geometry" />
        </mxCell>
        <mxCell id="PU6QvB0Lzl-o8I71-tE7-31" value="Build/Train&lt;br&gt;Model" style="shape=step;perimeter=stepPerimeter;whiteSpace=wrap;html=1;fixedSize=1;size=10;fillColor=#AE4132;strokeColor=none;fontSize=17;fontColor=#FFFFFF;fontStyle=1;align=center;rounded=0;" parent="1" vertex="1">
          <mxGeometry x="-80" y="90" width="160" height="70" as="geometry" />
        </mxCell>
        <mxCell id="PU6QvB0Lzl-o8I71-tE7-32" value="Model&lt;br&gt;Deployment" style="shape=step;perimeter=stepPerimeter;whiteSpace=wrap;html=1;fixedSize=1;size=10;fillColor=#23445D;strokeColor=none;fontSize=17;fontColor=#FFFFFF;fontStyle=1;align=center;rounded=0;" parent="1" vertex="1">
          <mxGeometry x="240" y="90" width="160" height="70" as="geometry" />
        </mxCell>
        <mxCell id="PU6QvB0Lzl-o8I71-tE7-33" value="Data&lt;br&gt;Collection" style="shape=step;perimeter=stepPerimeter;whiteSpace=wrap;html=1;fixedSize=1;size=10;fillColor=#12AAB5;strokeColor=none;fontSize=17;fontColor=#FFFFFF;fontStyle=1;align=center;rounded=0;" parent="1" vertex="1">
          <mxGeometry x="-880" y="90" width="160" height="70" as="geometry" />
        </mxCell>
        <mxCell id="PU6QvB0Lzl-o8I71-tE7-49" value="Data&lt;br&gt;Exploration" style="shape=step;perimeter=stepPerimeter;whiteSpace=wrap;html=1;fixedSize=1;size=10;fillColor=#12AAB5;strokeColor=none;fontSize=17;fontColor=#FFFFFF;fontStyle=1;align=center;rounded=0;" parent="1" vertex="1">
          <mxGeometry x="-720" y="90" width="160" height="70" as="geometry" />
        </mxCell>
        <mxCell id="PU6QvB0Lzl-o8I71-tE7-50" value="Data&lt;br&gt;Preparation" style="shape=step;perimeter=stepPerimeter;whiteSpace=wrap;html=1;fixedSize=1;size=10;fillColor=#12AAB5;strokeColor=none;fontSize=17;fontColor=#FFFFFF;fontStyle=1;align=center;rounded=0;" parent="1" vertex="1">
          <mxGeometry x="-560" y="90" width="160" height="70" as="geometry" />
        </mxCell>
        <mxCell id="PU6QvB0Lzl-o8I71-tE7-51" value="Feature&lt;br&gt;Engineering" style="shape=step;perimeter=stepPerimeter;whiteSpace=wrap;html=1;fixedSize=1;size=10;fillColor=#F2931E;strokeColor=none;fontSize=17;fontColor=#FFFFFF;fontStyle=1;align=center;rounded=0;" parent="1" vertex="1">
          <mxGeometry x="-240" y="90" width="160" height="70" as="geometry" />
        </mxCell>
        <mxCell id="PU6QvB0Lzl-o8I71-tE7-52" value="Model&lt;br&gt;Evaluation" style="shape=step;perimeter=stepPerimeter;whiteSpace=wrap;html=1;fixedSize=1;size=10;fillColor=#AE4132;strokeColor=none;fontSize=17;fontColor=#FFFFFF;fontStyle=1;align=center;rounded=0;" parent="1" vertex="1">
          <mxGeometry x="80" y="90" width="160" height="70" as="geometry" />
        </mxCell>
        <mxCell id="PU6QvB0Lzl-o8I71-tE7-53" value="" style="strokeWidth=2;html=1;shape=mxgraph.flowchart.annotation_2;align=left;labelPosition=right;pointerEvents=1;rotation=90;strokeColor=#050505;" parent="1" vertex="1">
          <mxGeometry x="-740" y="-240" width="30" height="620" as="geometry" />
        </mxCell>
        <mxCell id="PU6QvB0Lzl-o8I71-tE7-54" value="" style="strokeWidth=2;html=1;shape=mxgraph.flowchart.annotation_2;align=left;labelPosition=right;pointerEvents=1;rotation=90;strokeColor=#050505;" parent="1" vertex="1">
          <mxGeometry x="-260" y="-80" width="30" height="300" as="geometry" />
        </mxCell>
        <mxCell id="PU6QvB0Lzl-o8I71-tE7-55" value="" style="strokeWidth=2;html=1;shape=mxgraph.flowchart.annotation_2;align=left;labelPosition=right;pointerEvents=1;rotation=90;strokeColor=#050505;" parent="1" vertex="1">
          <mxGeometry x="140" y="-160" width="30" height="460" as="geometry" />
        </mxCell>
        <mxCell id="PU6QvB0Lzl-o8I71-tE7-56" value="&lt;font style=&quot;font-size: 18px&quot; color=&quot;#000000&quot;&gt;Prediction Engineering&lt;/font&gt;" style="text;strokeColor=none;fillColor=none;html=1;fontSize=24;fontStyle=1;verticalAlign=middle;align=center;fontColor=#FFFFFF;" parent="1" vertex="1">
          <mxGeometry x="-775" y="20" width="100" height="30" as="geometry" />
        </mxCell>
        <mxCell id="PU6QvB0Lzl-o8I71-tE7-58" value="&lt;font style=&quot;font-size: 18px&quot; color=&quot;#000000&quot;&gt;Feature Engineering&lt;/font&gt;" style="text;strokeColor=none;fillColor=none;html=1;fontSize=24;fontStyle=1;verticalAlign=middle;align=center;fontColor=#FFFFFF;" parent="1" vertex="1">
          <mxGeometry x="-295" y="20" width="100" height="30" as="geometry" />
        </mxCell>
        <mxCell id="PU6QvB0Lzl-o8I71-tE7-59" value="&lt;font style=&quot;font-size: 18px&quot; color=&quot;#000000&quot;&gt;Modelling&lt;/font&gt;" style="text;strokeColor=none;fillColor=none;html=1;fontSize=24;fontStyle=1;verticalAlign=middle;align=center;fontColor=#FFFFFF;" parent="1" vertex="1">
          <mxGeometry x="103" y="20" width="100" height="30" as="geometry" />
        </mxCell>
        <mxCell id="cYlz6hY5Yn_iT-Jx_YGW-3" value="" style="rounded=1;whiteSpace=wrap;html=1;strokeWidth=2;fillWeight=4;hachureGap=8;hachureAngle=45;fillColor=#e51400;sketch=1;labelBackgroundColor=none;strokeColor=none;glass=0;shadow=0;fontColor=#ffffff;" vertex="1" parent="1">
          <mxGeometry x="-730" y="170" width="170" height="20" as="geometry" />
        </mxCell>
      </root>
    </mxGraphModel>
  </diagram>
</mxfile>
